<svg width="24" height="24" viewBox="0 0 24 24" fill="none" xmlns="http://www.w3.org/2000/svg">
<path d="M2.25801 17.1975C2.89501 19.7443 3.21351 21.0172 4.16201 21.7592C5.11167 22.5 6.42417 22.5 9.04917 22.5H14.4508C17.0758 22.5 18.3883 22.5 19.3392 21.7592C20.2877 21.0172 20.6062 19.7443 21.242 17.1975C22.243 13.1935 22.7435 11.1927 21.6935 9.84633C20.6423 8.5 18.5773 8.5 14.452 8.5H9.04801C4.92034 8.5 2.85767 8.5 1.80651 9.84633C1.18934 10.6362 1.10651 11.6523 1.34684 13.1667" stroke="#BDBDBD" stroke-width="1.5" stroke-linecap="round"/>
<path d="M20.5 9.08317L19.6717 6.044C19.352 4.8715 19.1922 4.28584 18.8643 3.84367C18.5375 3.40438 18.0935 3.06597 17.5833 2.86717C17.07 2.6665 16.4633 2.6665 15.25 2.6665M3 9.08317L3.82833 6.044C4.148 4.8715 4.30783 4.28584 4.63567 3.84367C4.96254 3.40438 5.40647 3.06597 5.91667 2.86717C6.43 2.6665 7.03667 2.6665 8.25 2.6665" stroke="#BDBDBD" stroke-width="1.5"/>
<path d="M8.25 2.66667C8.25 2.35725 8.37292 2.0605 8.59171 1.84171C8.8105 1.62292 9.10725 1.5 9.41667 1.5H14.0833C14.3928 1.5 14.6895 1.62292 14.9083 1.84171C15.1271 2.0605 15.25 2.35725 15.25 2.66667C15.25 2.97609 15.1271 3.27283 14.9083 3.49162C14.6895 3.71042 14.3928 3.83333 14.0833 3.83333H9.41667C9.10725 3.83333 8.8105 3.71042 8.59171 3.49162C8.37292 3.27283 8.25 2.97609 8.25 2.66667Z" stroke="#BDBDBD" stroke-width="1.5"/>
</svg>
