<svg width="25" height="22" viewBox="0 0 25 22" fill="none" xmlns="http://www.w3.org/2000/svg">
<path d="M17.7188 0.5C15.4602 0.5 13.4827 1.47125 12.25 3.11297C11.0173 1.47125 9.03984 0.5 6.78125 0.5C4.98337 0.502026 3.25971 1.21713 1.98842 2.48842C0.717128 3.75971 0.00202643 5.48337 0 7.28125C0 14.9375 11.352 21.1347 11.8355 21.3906C11.9629 21.4592 12.1053 21.495 12.25 21.495C12.3947 21.495 12.5371 21.4592 12.6645 21.3906C13.148 21.1347 24.5 14.9375 24.5 7.28125C24.498 5.48337 23.7829 3.75971 22.5116 2.48842C21.2403 1.21713 19.5166 0.502026 17.7188 0.5ZM12.25 19.6187C10.2528 18.455 1.75 13.1536 1.75 7.28125C1.75174 5.94741 2.28237 4.6687 3.22554 3.72554C4.1687 2.78237 5.44741 2.25174 6.78125 2.25C8.90859 2.25 10.6947 3.38312 11.4406 5.20312C11.5065 5.36361 11.6187 5.50087 11.7628 5.59747C11.9069 5.69408 12.0765 5.74565 12.25 5.74565C12.4235 5.74565 12.5931 5.69408 12.7372 5.59747C12.8813 5.50087 12.9935 5.36361 13.0594 5.20312C13.8053 3.37984 15.5914 2.25 17.7188 2.25C19.0526 2.25174 20.3313 2.78237 21.2745 3.72554C22.2176 4.6687 22.7483 5.94741 22.75 7.28125C22.75 13.1448 14.245 18.4539 12.25 19.6187Z" fill="#BDBDBD"/>
</svg>
