<svg width="26" height="26" viewBox="0 0 26 26" fill="none" xmlns="http://www.w3.org/2000/svg">
<path d="M13 16.5002V20.0002M24.6667 13.2382V15.0127C24.6667 19.5627 24.6667 21.8388 23.2994 23.2528C21.9332 24.6668 19.7329 24.6668 15.3334 24.6668H10.6667C6.26721 24.6668 4.06687 24.6668 2.70071 23.2528C1.33337 21.8388 1.33337 19.5638 1.33337 15.0127V13.2382C1.33337 10.5677 1.33337 9.233 1.94004 8.127C2.54437 7.01983 3.65154 6.33383 5.86471 4.9595L8.19804 3.51166C10.5372 2.05916 11.7074 1.3335 13 1.3335C14.2927 1.3335 15.4617 2.05916 17.802 3.51166L20.1354 4.9595C22.3485 6.33383 23.4557 7.01983 24.0612 8.127" stroke="#BDBDBD" stroke-width="1.5"/>
</svg>
