<svg width="23" height="26" viewBox="0 0 23 26" fill="none" xmlns="http://www.w3.org/2000/svg">
<path d="M1 15.3335V10.6668C1 6.26733 1 4.067 2.36733 2.70083C3.7335 1.3335 5.93383 1.3335 10.3333 1.3335H12.6667C17.0662 1.3335 19.2665 1.3335 20.6327 2.70083C21.3957 3.46266 21.7328 4.4835 21.881 6.00016M22 10.6668V15.3335C22 19.733 22 21.9333 20.6327 23.2995C19.2665 24.6668 17.0662 24.6668 12.6667 24.6668H10.3333C5.93383 24.6668 3.7335 24.6668 2.36733 23.2995C1.60433 22.5377 1.26717 21.5168 1.119 20.0002M6.83333 15.3335H12.6667M6.83333 10.6668H8M16.1667 10.6668H11.5" stroke="#BDBDBD" stroke-width="1.75" stroke-linecap="round"/>
</svg>
