<svg width="21" height="18" viewBox="0 0 21 18" fill="none" xmlns="http://www.w3.org/2000/svg">
<path d="M0.504883 6.5V1C0.504883 0.734784 0.61024 0.48043 0.797776 0.292893C0.985312 0.105357 1.23967 0 1.50488 0H19.5049C19.7701 0 20.0245 0.105357 20.212 0.292893C20.3995 0.48043 20.5049 0.734784 20.5049 1V6.5C19.8418 6.5 19.206 6.76339 18.7371 7.23223C18.2683 7.70107 18.0049 8.33696 18.0049 9C18.0049 9.66304 18.2683 10.2989 18.7371 10.7678C19.206 11.2366 19.8418 11.5 20.5049 11.5V17C20.5049 17.2652 20.3995 17.5196 20.212 17.7071C20.0245 17.8946 19.7701 18 19.5049 18H1.50488C1.23967 18 0.985312 17.8946 0.797776 17.7071C0.61024 17.5196 0.504883 17.2652 0.504883 17V11.5C1.16792 11.5 1.80381 11.2366 2.27265 10.7678C2.74149 10.2989 3.00488 9.66304 3.00488 9C3.00488 8.33696 2.74149 7.70107 2.27265 7.23223C1.80381 6.76339 1.16792 6.5 0.504883 6.5ZM2.50488 4.968C3.25609 5.3403 3.88836 5.91505 4.33039 6.62746C4.77242 7.33987 5.00664 8.1616 5.00664 9C5.00664 9.8384 4.77242 10.6601 4.33039 11.3725C3.88836 12.085 3.25609 12.6597 2.50488 13.032V16H18.5049V13.032C17.7537 12.6597 17.1214 12.085 16.6794 11.3725C16.2373 10.6601 16.0031 9.8384 16.0031 9C16.0031 8.1616 16.2373 7.33987 16.6794 6.62746C17.1214 5.91505 17.7537 5.3403 18.5049 4.968V2H2.50488V4.968ZM7.50488 6H13.5049V8H7.50488V6ZM7.50488 10H13.5049V12H7.50488V10Z" fill="#FF5934"/>
</svg>
