<svg width="21" height="21" viewBox="0 0 21 21" fill="none" xmlns="http://www.w3.org/2000/svg">
<path d="M4.58057 9.16115C6.83421 9.16115 8.66115 7.33421 8.66115 5.08057C8.66115 2.82694 6.83421 1 4.58057 1C2.32694 1 0.5 2.82694 0.5 5.08057C0.5 7.33421 2.32694 9.16115 4.58057 9.16115Z" stroke="#121212" stroke-linecap="round" stroke-linejoin="round"/>
<path d="M15.7094 9.16115C17.9631 9.16115 19.79 7.33421 19.79 5.08057C19.79 2.82694 17.9631 1 15.7094 1C13.4558 1 11.6288 2.82694 11.6288 5.08057C11.6288 7.33421 13.4558 9.16115 15.7094 9.16115Z" stroke="#121212" stroke-linecap="round" stroke-linejoin="round"/>
<path d="M4.58057 20.2901C6.83421 20.2901 8.66115 18.4631 8.66115 16.2095C8.66115 13.9558 6.83421 12.1289 4.58057 12.1289C2.32694 12.1289 0.5 13.9558 0.5 16.2095C0.5 18.4631 2.32694 20.2901 4.58057 20.2901Z" stroke="#121212" stroke-linecap="round" stroke-linejoin="round"/>
<path d="M15.7094 20.2901C17.9631 20.2901 19.79 18.4631 19.79 16.2095C19.79 13.9558 17.9631 12.1289 15.7094 12.1289C13.4558 12.1289 11.6288 13.9558 11.6288 16.2095C11.6288 18.4631 13.4558 20.2901 15.7094 20.2901Z" stroke="#121212" stroke-linecap="round" stroke-linejoin="round"/>
</svg>
