<svg width="20" height="22" viewBox="0 0 20 22" fill="none" xmlns="http://www.w3.org/2000/svg">
<path d="M10 7V11" stroke="#EF233C" stroke-width="1.5" stroke-linecap="round"/>
<path d="M10 15C10.5523 15 11 14.5523 11 14C11 13.4477 10.5523 13 10 13C9.44772 13 9 13.4477 9 14C9 14.5523 9.44772 15 10 15Z" fill="#EF233C"/>
<path d="M1 9.417C1 6.219 1 4.62 1.378 4.082C1.755 3.545 3.258 3.03 6.265 2.001L6.838 1.805C8.405 1.268 9.188 1 10 1C10.811 1 11.595 1.268 13.162 1.805L13.735 2.001C16.742 3.03 18.245 3.545 18.622 4.082C19 4.62 19 6.22 19 9.417V10.991C19 13.496 18.163 15.428 17 16.904M1.193 13C2.05 17.298 5.576 19.513 7.899 20.527C8.62 20.842 8.981 21 10 21C11.02 21 11.38 20.842 12.101 20.527C12.68 20.275 13.332 19.947 14 19.533" stroke="#EF233C" stroke-width="1.5" stroke-linecap="round"/>
</svg>
