<svg width="19" height="20" viewBox="0 0 19 20" fill="none" xmlns="http://www.w3.org/2000/svg">
<path d="M18.1315 14.5881C17.6009 13.675 16.8125 11.0997 16.8125 7.75C16.8125 5.8106 16.042 3.95064 14.6707 2.57928C13.2993 1.20792 11.4394 0.4375 9.49996 0.4375C7.56057 0.4375 5.7006 1.20792 4.32924 2.57928C2.95788 3.95064 2.18746 5.8106 2.18746 7.75C2.18746 11.1006 1.39809 13.675 0.867462 14.5881C0.751039 14.7875 0.689262 15.014 0.688364 15.2449C0.687467 15.4758 0.747481 15.7028 0.862351 15.903C0.977221 16.1033 1.14288 16.2697 1.34262 16.3855C1.54235 16.5013 1.76909 16.5623 1.99996 16.5625H5.98246C6.11909 17.3964 6.54766 18.1545 7.19164 18.7016C7.83563 19.2486 8.6531 19.549 9.49809 19.549C10.3431 19.549 11.1605 19.2486 11.8045 18.7016C12.4485 18.1545 12.8771 17.3964 13.0137 16.5625H17C17.2307 16.562 17.4572 16.5007 17.6567 16.3848C17.8561 16.2689 18.0215 16.1024 18.1362 15.9022C18.2508 15.702 18.3107 15.4751 18.3097 15.2444C18.3087 15.0137 18.2469 14.7874 18.1306 14.5881H18.1315ZM9.49996 18.4375C8.95144 18.4373 8.419 18.2521 7.98876 17.9119C7.55851 17.5716 7.25561 17.0962 7.12902 16.5625H11.8709C11.7443 17.0962 11.4414 17.5716 11.0112 17.9119C10.5809 18.2521 10.0485 18.4373 9.49996 18.4375ZM17.1603 15.3438C17.1448 15.3725 17.1218 15.3964 17.0937 15.4129C17.0656 15.4295 17.0335 15.438 17.0009 15.4375H1.99996C1.96736 15.438 1.93526 15.4295 1.90716 15.4129C1.87905 15.3964 1.85603 15.3725 1.84059 15.3438C1.82413 15.3152 1.81547 15.2829 1.81547 15.25C1.81547 15.2171 1.82413 15.1848 1.84059 15.1562C2.55027 13.9375 3.31246 11.0959 3.31246 7.75C3.31246 6.10897 3.96436 4.53516 5.12474 3.37478C6.28512 2.2144 7.85894 1.5625 9.49996 1.5625C11.141 1.5625 12.7148 2.2144 13.8752 3.37478C15.0356 4.53516 15.6875 6.10897 15.6875 7.75C15.6875 11.095 16.4506 13.9328 17.1603 15.1562C17.1767 15.1848 17.1854 15.2171 17.1854 15.25C17.1854 15.2829 17.1767 15.3152 17.1603 15.3438Z" fill="#121212"/>
</svg>
