<svg width="4" height="21" viewBox="0 0 4 21" fill="none" xmlns="http://www.w3.org/2000/svg">
<path fill-rule="evenodd" clip-rule="evenodd" d="M0.399902 2.4999C0.399902 2.07556 0.568474 1.66859 0.868532 1.36853C1.16859 1.06847 1.57556 0.899902 1.9999 0.899902C2.42425 0.899902 2.83121 1.06847 3.13127 1.36853C3.43133 1.66859 3.5999 2.07556 3.5999 2.4999C3.5999 2.92425 3.43133 3.33122 3.13127 3.63127C2.83121 3.93133 2.42425 4.0999 1.9999 4.0999C1.57556 4.0999 1.16859 3.93133 0.868532 3.63127C0.568474 3.33122 0.399902 2.92425 0.399902 2.4999ZM0.399902 10.4999C0.399902 10.0756 0.568474 9.66859 0.868532 9.36853C1.16859 9.06847 1.57556 8.8999 1.9999 8.8999C2.42425 8.8999 2.83121 9.06847 3.13127 9.36853C3.43133 9.66859 3.5999 10.0756 3.5999 10.4999C3.5999 10.9242 3.43133 11.3312 3.13127 11.6313C2.83121 11.9313 2.42425 12.0999 1.9999 12.0999C1.57556 12.0999 1.16859 11.9313 0.868532 11.6313C0.568474 11.3312 0.399902 10.9242 0.399902 10.4999ZM0.399902 18.4999C0.399902 18.0756 0.568474 17.6686 0.868532 17.3685C1.16859 17.0685 1.57556 16.8999 1.9999 16.8999C2.42425 16.8999 2.83121 17.0685 3.13127 17.3685C3.43133 17.6686 3.5999 18.0756 3.5999 18.4999C3.5999 18.9242 3.43133 19.3312 3.13127 19.6313C2.83121 19.9313 2.42425 20.0999 1.9999 20.0999C1.57556 20.0999 1.16859 19.9313 0.868532 19.6313C0.568474 19.3312 0.399902 18.9242 0.399902 18.4999Z" fill="#121212"/>
</svg>
