<svg width="20" height="22" viewBox="0 0 20 22" fill="none" xmlns="http://www.w3.org/2000/svg">
<path d="M8.62236 12.5295L12.9502 8.20172C13.0847 8.06724 13.2558 8 13.4636 8C13.6715 8 13.8426 8.06724 13.9771 8.20172C14.1116 8.3362 14.1788 8.50736 14.1788 8.71519C14.1788 8.92302 14.1116 9.09418 13.9771 9.22866L9.13583 14.0699C8.98913 14.2166 8.81797 14.29 8.62236 14.29C8.42675 14.29 8.2556 14.2166 8.10889 14.0699L6.20172 12.1628C6.06724 12.0283 6 11.8571 6 11.6493C6 11.4415 6.06724 11.2703 6.20172 11.1358C6.3362 11.0014 6.50736 10.9341 6.71519 10.9341C6.92302 10.9341 7.09418 11.0014 7.22866 11.1358L8.62236 12.5295Z" fill="#17B556"/>
<path d="M1 9.417C1 6.219 1 4.62 1.378 4.082C1.755 3.545 3.258 3.03 6.265 2.001L6.838 1.805C8.405 1.268 9.188 1 10 1C10.811 1 11.595 1.268 13.162 1.805L13.735 2.001C16.742 3.03 18.245 3.545 18.622 4.082C19 4.62 19 6.22 19 9.417V10.991C19 13.496 18.163 15.428 17 16.904M1.193 13C2.05 17.298 5.576 19.513 7.899 20.527C8.62 20.842 8.981 21 10 21C11.02 21 11.38 20.842 12.101 20.527C12.68 20.275 13.332 19.947 14 19.533" stroke="#17B556" stroke-width="1.5" stroke-linecap="round"/>
</svg>
